<mxfile host="app.diagrams.net" modified="2023-10-21T00:19:26.568Z" agent="Mozilla/5.0 (Windows NT 10.0; Win64; x64) AppleWebKit/537.36 (KHTML, like Gecko) Chrome/118.0.0.0 Safari/537.36" version="21.5.2" etag="sE-hpddve9drSixjw54U" type="github">
  <diagram name="PÃ¡gina-1" id="aK6_6uBWOGJFU161VMAd">
    <mxGraphModel>
      <root>
        <mxCell id="0" />
        <mxCell id="1" parent="0" />
      </root>
    </mxGraphModel>
  </diagram>
</mxfile>
